<svg width="40" height="42" viewBox="0 0 40 42" fill="none" xmlns="http://www.w3.org/2000/svg">
<g clip-path="url(#clip0_3_756)">
<path fill-rule="evenodd" clip-rule="evenodd" d="M30.9648 4.77148V7.41357H35.1766H35.1801V7.42041C36.5103 7.42383 37.7162 7.95703 38.5869 8.82178C39.4506 9.67969 39.9896 10.8657 39.9931 12.1782H40V12.1851V37.2285V37.2319H39.9931C39.9896 38.5444 39.4506 39.7373 38.5765 40.6021C37.7093 41.4565 36.5103 41.9897 35.1836 41.9932V42H35.1766H13.8585H13.8551V41.9932C12.5283 41.9897 11.319 41.4565 10.4483 40.5918C9.58452 39.7339 9.04552 38.5479 9.04207 37.2354H9.03516V37.2285V31.6196H4.82336H4.8199V31.6128C3.49313 31.6094 2.28384 31.0762 1.41315 30.2114C0.549365 29.3535 0.0103654 28.1675 0.00691025 26.855H0V26.8481V4.77148V4.76807H0.00691025C0.0103654 3.45215 0.55282 2.25928 1.42351 1.39795C2.29075 0.543457 3.48968 0.0102539 4.81645 0.00683594V0H4.82336H26.1415H26.1449V0.00683594C27.4752 0.0102539 28.681 0.543457 29.5517 1.4082C30.4155 2.26611 30.9545 3.45215 30.9579 4.76465H30.9648V4.77148V4.77148ZM27.3093 7.41357V4.77148V4.76465H27.3162C27.3162 4.45361 27.1815 4.1665 26.9673 3.95459C26.7565 3.74609 26.4628 3.61279 26.1484 3.61279V3.61963H26.1449H4.82681H4.8199V3.61279C4.50548 3.61279 4.21525 3.74609 4.00104 3.95801C3.79027 4.1665 3.65552 4.45703 3.65552 4.76807H3.66243V4.77148V26.8481V26.855H3.65552C3.65552 27.166 3.79027 27.4531 4.00449 27.665C4.21525 27.8735 4.50894 28.0068 4.82336 28.0068V28H4.82681H9.03861V12.1851V12.1816H9.04552C9.04898 10.8657 9.59143 9.67285 10.4621 8.81152C11.3294 7.95703 12.5283 7.42383 13.8551 7.42041V7.41357H13.862H27.3093ZM36.341 37.2285V12.1851V12.1782H36.3479C36.3479 11.8672 36.2132 11.5801 35.999 11.3682C35.7882 11.1597 35.4945 11.0264 35.1801 11.0264V11.0332H35.1766H13.8585H13.8516V11.0264C13.5372 11.0264 13.247 11.1597 13.0327 11.3716C12.822 11.5801 12.6872 11.8706 12.6872 12.1816H12.6941V12.1851V37.2285V37.2354H12.6872C12.6872 37.5464 12.822 37.8335 13.0362 38.0454C13.247 38.2539 13.5406 38.3872 13.8551 38.3872V38.3804H13.8585H35.1766H35.1836V38.3872C35.498 38.3872 35.7882 38.2539 36.0024 38.042C36.2132 37.8335 36.3479 37.543 36.3479 37.2319H36.341V37.2285V37.2285Z" fill="white"/>
</g>
<defs>
<clipPath id="clip0_3_756">
<rect width="40" height="42" fill="white"/>
</clipPath>
</defs>
</svg>
