<svg width="86" height="152" viewBox="0 0 86 152" fill="none" xmlns="http://www.w3.org/2000/svg">
<rect width="20" height="20" rx="3" fill="#FAFAFA"/>
<rect x="22" y="22" width="20" height="20" rx="3" fill="#6C6C6C"/>
<rect y="22" width="20" height="20" rx="3" fill="#FAFAFA"/>
<rect x="66" width="20" height="20" rx="3" fill="#FAFAFA"/>
<rect x="66" y="22" width="20" height="20" rx="3" fill="#FAFAFA"/>
<rect x="44" y="22" width="20" height="20" rx="3" fill="#6C6C6C"/>
<rect x="22" width="20" height="20" rx="3" fill="#6C6C6C"/>
<rect x="44" width="20" height="20" rx="3" fill="#6C6C6C"/>
<rect y="44" width="20" height="20" rx="3" fill="#FAFAFA"/>
<rect x="22" y="44" width="20" height="20" rx="3" fill="#6C6C6C"/>
<rect x="22" y="66" width="20" height="20" rx="3" fill="#FAFAFA"/>
<rect y="66" width="20" height="20" rx="3" fill="#FAFAFA"/>
<rect x="44" y="44" width="20" height="20" rx="3" fill="#6C6C6C"/>
<rect x="66" y="44" width="20" height="20" rx="3" fill="#FAFAFA"/>
<rect x="66" y="66" width="20" height="20" rx="3" fill="#FAFAFA"/>
<rect x="44" y="66" width="20" height="20" rx="3" fill="#FAFAFA"/>
<rect y="88" width="20" height="20" rx="3" fill="#6C6C6C"/>
<rect x="22" y="88" width="20" height="20" rx="3" fill="#6C6C6C"/>
<rect x="22" y="110" width="20" height="20" rx="3" fill="#6C6C6C"/>
<rect y="110" width="20" height="20" rx="3" fill="#6C6C6C"/>
<rect x="44" y="88" width="20" height="20" rx="3" fill="#6C6C6C"/>
<rect x="66" y="88" width="20" height="20" rx="3" fill="#FAFAFA"/>
<rect x="66" y="110" width="20" height="20" rx="3" fill="#FAFAFA"/>
<rect x="44" y="110" width="20" height="20" rx="3" fill="#6C6C6C"/>
<rect x="22" y="132" width="20" height="20" rx="3" fill="#6C6C6C"/>
<rect y="132" width="20" height="20" rx="3" fill="#6C6C6C"/>
<rect x="44" y="132" width="20" height="20" rx="3" fill="#6C6C6C"/>
<rect x="66" y="132" width="20" height="20" rx="3" fill="#FAFAFA"/>
</svg>
